<svg width="50" height="50" viewBox="0 0 50 50" fill="none" xmlns="http://www.w3.org/2000/svg">
<path fill-rule="evenodd" clip-rule="evenodd" d="M25.0001 2.60413C12.6313 2.60413 2.60425 12.6312 2.60425 25C2.60425 28.8666 3.5855 32.5104 5.31258 35.6875L3.673 44.5062C3.62686 44.7554 3.64204 45.0121 3.71722 45.2541C3.7924 45.4962 3.92532 45.7163 4.10454 45.8955C4.28375 46.0747 4.50386 46.2076 4.7459 46.2828C4.98793 46.358 5.24462 46.3732 5.49383 46.327L14.3126 44.6854C17.5919 46.4695 21.2668 47.4015 25.0001 47.3958C37.3688 47.3958 47.3959 37.3687 47.3959 25C47.3959 12.6312 37.3688 2.60413 25.0001 2.60413ZM35.4168 22.3958C34.7261 22.3958 34.0637 22.6702 33.5753 23.1585C33.0869 23.6469 32.8126 24.3093 32.8126 25C32.8126 25.6906 33.0869 26.353 33.5753 26.8414C34.0637 27.3298 34.7261 27.6041 35.4168 27.6041C36.1074 27.6041 36.7698 27.3298 37.2582 26.8414C37.7466 26.353 38.0209 25.6906 38.0209 25C38.0209 24.3093 37.7466 23.6469 37.2582 23.1585C36.7698 22.6702 36.1074 22.3958 35.4168 22.3958ZM22.3959 25C22.3959 24.3093 22.6703 23.6469 23.1587 23.1585C23.647 22.6702 24.3094 22.3958 25.0001 22.3958C25.6908 22.3958 26.3531 22.6702 26.8415 23.1585C27.3299 23.6469 27.6042 24.3093 27.6042 25C27.6042 25.6906 27.3299 26.353 26.8415 26.8414C26.3531 27.3298 25.6908 27.6041 25.0001 27.6041C24.3094 27.6041 23.647 27.3298 23.1587 26.8414C22.6703 26.353 22.3959 25.6906 22.3959 25ZM14.5834 22.3958C13.8927 22.3958 13.2304 22.6702 12.742 23.1585C12.2536 23.6469 11.9792 24.3093 11.9792 25C11.9792 25.6906 12.2536 26.353 12.742 26.8414C13.2304 27.3298 13.8927 27.6041 14.5834 27.6041C15.2741 27.6041 15.9365 27.3298 16.4248 26.8414C16.9132 26.353 17.1876 25.6906 17.1876 25C17.1876 24.3093 16.9132 23.6469 16.4248 23.1585C15.9365 22.6702 15.2741 22.3958 14.5834 22.3958Z" fill="black"/>
</svg>
