<svg width="48" height="40" viewBox="0 0 48 40" fill="none" xmlns="http://www.w3.org/2000/svg">
<path d="M16.5774 1.3512C18.9643 0.569876 21.5498 0.648349 23.885 1.57288C26.22 2.49744 28.1584 4.20938 29.3635 6.41272C30.5687 8.61618 30.9649 11.1724 30.4836 13.6373C30.0023 16.1022 28.6732 18.3206 26.7278 19.9088C24.7828 21.4967 22.3439 22.3539 19.8333 22.3326C16.3876 22.337 13.0582 23.581 10.4534 25.8365C7.92165 28.0289 6.24229 31.036 5.6936 34.3336H19.8333C20.4521 34.3336 21.0461 34.5787 21.4836 35.0162C21.9212 35.4538 22.1663 36.0478 22.1663 36.6666C22.1663 37.2855 21.9212 37.8794 21.4836 38.317C21.0461 38.7546 20.4521 38.9996 19.8333 38.9996H3.16626C2.54769 38.9995 1.95432 38.7543 1.51685 38.317C1.07926 37.8794 0.833252 37.2855 0.833252 36.6666L0.846924 35.9586C0.983203 32.4255 2.10294 28.9953 4.08521 26.0563C6.12842 23.0269 8.99994 20.6545 12.3528 19.2155C10.6649 17.5428 9.57426 15.3564 9.26001 12.9938C8.92898 10.5042 9.47918 7.97662 10.8157 5.85022C12.1521 3.72391 14.1906 2.13254 16.5774 1.3512ZM36.5002 17.6666C37.119 17.6667 37.7121 17.9127 38.1497 18.3502C38.5872 18.7877 38.8332 19.3809 38.8333 19.9996V25.9996H44.8333C45.4521 25.9996 46.0461 26.2456 46.4836 26.6832C46.9211 27.1208 47.1663 27.7149 47.1663 28.3336C47.1662 28.9522 46.9209 29.5456 46.4836 29.983C46.0461 30.4206 45.4521 30.6666 44.8333 30.6666H38.8333V36.6666C38.8333 37.2855 38.5872 37.8794 38.1497 38.317C37.7122 38.7543 37.1188 38.9995 36.5002 38.9996C35.8815 38.9996 35.2874 38.7545 34.8499 38.317C34.4123 37.8794 34.1663 37.2855 34.1663 36.6666V30.6666H28.1663C27.5475 30.6665 26.9544 30.4205 26.5168 29.983C26.0793 29.5455 25.8333 28.9523 25.8333 28.3336C25.8333 27.7148 26.0793 27.1208 26.5168 26.6832C26.9543 26.2458 27.5476 25.9997 28.1663 25.9996H34.1663V19.9996C34.1663 19.381 34.4124 18.7877 34.8499 18.3502C35.2874 17.9126 35.8814 17.6666 36.5002 17.6666ZM19.8333 5.66663C18.242 5.66663 16.7163 6.29922 15.5911 7.42444C14.4658 8.54966 13.8333 10.0753 13.8333 11.6666C13.8333 12.8531 14.1849 14.013 14.844 14.9996C15.5033 15.9863 16.441 16.7555 17.5374 17.2096C18.6337 17.6637 19.8403 17.7829 21.0042 17.5514C22.1679 17.3198 23.2364 16.7478 24.0754 15.9088C24.9145 15.0698 25.4865 14.0013 25.718 12.8375C25.9495 11.6737 25.8303 10.4671 25.3762 9.37073C24.9221 8.27437 24.153 7.33666 23.1663 6.67737C22.1797 6.01829 21.0197 5.66663 19.8333 5.66663Z" fill="black" stroke="black" stroke-width="0.5"/>
</svg>
