<svg width="30" height="42" viewBox="0 0 30 42" fill="none" xmlns="http://www.w3.org/2000/svg">
<path d="M14.4313 26.2369L12.0027 38.9216L14.9999 41.3188L17.9939 38.9232L15.5291 26.2369H14.4313Z" fill="black"/>
<path d="M24.5712 22.1425C22.7932 23.8969 20.546 25.1677 18.0388 25.7556L20.6542 39.1688C20.7531 39.6408 20.5778 40.1271 20.2037 40.4265L19.0767 41.3271C22.2135 40.9523 25.613 40.1348 29.1729 38.6408V28.6859C29.1729 25.7348 27.6509 23.5947 24.5712 22.1425Z" fill="black"/>
<path d="M11.9126 25.7979C9.34662 25.226 7.04717 23.9403 5.23564 22.1523C2.28234 23.6001 0.825195 25.7375 0.825195 28.6859V38.6886C2.24498 39.3485 5.89882 40.8359 10.9834 41.3787L9.79553 40.4282C9.4208 40.1276 9.24498 39.6436 9.34168 39.1738L11.9126 25.7979Z" fill="black"/>
<path d="M14.8951 23.5765C21.1088 23.5765 26.1621 18.4875 26.1621 12.2315C26.1621 5.97543 21.1083 0.885864 14.8951 0.885864C8.68684 0.885864 3.63574 5.97487 3.63574 12.2309C3.63574 18.487 8.68684 23.5765 14.8951 23.5765Z" fill="black"/>
</svg>
