<svg width="50" height="42" viewBox="0 0 50 42" fill="none" xmlns="http://www.w3.org/2000/svg">
<path d="M39.351 5.1676C33.5818 5.1676 28.8867 9.86266 28.8867 15.6352C28.8867 21.4066 33.5818 26.1028 39.351 26.1028C45.1246 26.1028 49.8208 21.4066 49.8208 15.6352C49.8208 9.86211 45.1246 5.1676 39.351 5.1676ZM43.607 17.1028H40.6191V20.0912C40.6191 20.8522 40.0021 21.4682 39.2422 21.4682C38.4823 21.4682 37.8664 20.8522 37.8664 20.0912V17.1028H34.8779C34.118 17.1028 33.501 16.4868 33.501 15.7258C33.501 14.966 34.118 14.35 34.8779 14.35H37.8664V11.3632C37.8664 10.6033 38.4823 9.98738 39.2422 9.98738C40.0021 9.98738 40.6191 10.6033 40.6191 11.3632V14.35H43.607C44.3669 14.35 44.9829 14.966 44.9829 15.7258C44.9829 16.4868 44.3669 17.1028 43.607 17.1028Z" fill="black"/>
<path d="M14.0143 26.3203L11.5857 39.0049L14.5829 41.4022L17.5769 39.0066L15.1121 26.3203H14.0143Z" fill="black"/>
<path d="M24.1542 22.2258C22.3762 23.9802 20.129 25.2511 17.6218 25.839L20.2372 39.2522C20.3361 39.7242 20.1608 40.2104 19.7867 40.5099L18.6597 41.4104C21.7966 41.0357 25.196 40.2181 28.7559 38.7242V28.7692C28.7559 25.8181 27.2339 23.678 24.1542 22.2258Z" fill="black"/>
<path d="M11.4956 25.8813C8.92963 25.3093 6.63018 24.0236 4.81864 22.2357C1.86535 23.6835 0.408203 25.8209 0.408203 28.7692V38.772C1.82798 39.4319 5.48183 40.9192 10.5664 41.4621L9.37853 40.5115C9.00381 40.211 8.82798 39.7269 8.92469 39.2571L11.4956 25.8813Z" fill="black"/>
<path d="M14.4781 23.6599C20.6918 23.6599 25.7451 18.5709 25.7451 12.3148C25.7451 6.0588 20.6913 0.969238 14.4781 0.969238C8.26985 0.969238 3.21875 6.05825 3.21875 12.3143C3.21875 18.5703 8.26985 23.6599 14.4781 23.6599Z" fill="black"/>
</svg>
