<svg width="50" height="50" viewBox="0 0 50 50" fill="none" xmlns="http://www.w3.org/2000/svg">
<path d="M16 26C19.6 18 30.4 18 34 26" stroke="#002660" stroke-width="1.5" stroke-linecap="round" stroke-linejoin="round"/>
<path d="M25 30C24.606 30 24.2159 29.9224 23.8519 29.7716C23.488 29.6209 23.1573 29.3999 22.8787 29.1213C22.6001 28.8427 22.3791 28.512 22.2284 28.1481C22.0776 27.7841 22 27.394 22 27C22 26.606 22.0776 26.2159 22.2284 25.8519C22.3791 25.488 22.6001 25.1573 22.8787 24.8787C23.1573 24.6001 23.488 24.3791 23.8519 24.2284C24.2159 24.0776 24.606 24 25 24C25.7956 24 26.5587 24.3161 27.1213 24.8787C27.6839 25.4413 28 26.2044 28 27C28 27.7956 27.6839 28.5587 27.1213 29.1213C26.5587 29.6839 25.7956 30 25 30Z" stroke="#002660" stroke-width="1.5" stroke-linecap="round" stroke-linejoin="round"/>
</svg>
