<svg width="50" height="50" viewBox="0 0 50 50" fill="none" xmlns="http://www.w3.org/2000/svg">
<path fill-rule="evenodd" clip-rule="evenodd" d="M33.5938 25C33.5938 24.1371 32.8942 23.4375 32.0313 23.4375H9.17183L13.2565 19.9364C13.9117 19.3748 13.9876 18.3884 13.426 17.7332C12.8644 17.078 11.878 17.0021 11.2228 17.5637L3.93114 23.8138C3.58481 24.1104 3.3855 24.544 3.3855 25C3.3855 25.4561 3.58481 25.8896 3.93114 26.1863L11.2228 32.4363C11.878 32.9979 12.8644 32.9221 13.426 32.2669C13.9876 31.6117 13.9117 30.6252 13.2565 30.0638L9.17183 26.5625H32.0313C32.8942 26.5625 33.5938 25.8629 33.5938 25Z" fill="black"/>
<path d="M19.5312 16.6666C19.5312 18.1295 19.5313 18.861 19.8823 19.3864C20.0343 19.6139 20.2297 19.8093 20.4572 19.9613C20.9827 20.3124 21.7142 20.3124 23.1771 20.3124H32.0313C34.62 20.3124 36.7188 22.411 36.7188 25C36.7188 27.5887 34.62 29.6875 32.0313 29.6875H23.1771C21.7142 29.6875 20.9825 29.6875 20.4571 30.0385C20.2296 30.1906 20.0344 30.3858 19.8824 30.6133C19.5312 31.1387 19.5312 31.8702 19.5312 33.3333C19.5312 39.2258 19.5313 42.172 21.3619 44.0027C23.1925 45.8333 26.1383 45.8333 32.0308 45.8333H34.1142C40.0067 45.8333 42.9529 45.8333 44.7835 44.0027C46.6142 42.172 46.6142 39.2258 46.6142 33.3333V16.6666C46.6142 10.7741 46.6142 7.82779 44.7835 5.99721C42.9529 4.16663 40.0067 4.16663 34.1142 4.16663H32.0308C26.1383 4.16663 23.1925 4.16663 21.3619 5.99721C19.5313 7.82779 19.5312 10.7741 19.5312 16.6666Z" fill="black"/>
</svg>
