<svg width="50" height="50" viewBox="0 0 50 50" fill="none" xmlns="http://www.w3.org/2000/svg">
<path d="M13.7834 43.75C12.8501 43.75 12.0556 43.4222 11.4001 42.7667C10.7445 42.1111 10.4167 41.3174 10.4167 40.3854V22.1146C10.4167 21.184 10.7445 20.3903 11.4001 19.7333C12.0556 19.0778 12.8501 18.75 13.7834 18.75H16.6667V14.5833C16.6667 12.2625 17.4758 10.2937 19.0938 8.67708C20.7105 7.05903 22.6792 6.25 25.0001 6.25C27.3209 6.25 29.2904 7.05903 30.9084 8.67708C32.5265 10.2951 33.3348 12.2639 33.3334 14.5833V18.75H36.2188C37.1494 18.75 37.9431 19.0778 38.6001 19.7333C39.2556 20.3889 39.5834 21.1833 39.5834 22.1167V40.3854C39.5834 41.316 39.2556 42.1097 38.6001 42.7667C37.9445 43.4222 37.1508 43.75 36.2188 43.75H13.7834ZM13.7834 41.6667H36.2188C36.5924 41.6667 36.8994 41.5465 37.1397 41.3062C37.3799 41.066 37.5001 40.759 37.5001 40.3854V22.1146C37.5001 21.741 37.3799 21.434 37.1397 21.1938C36.8994 20.9535 36.5924 20.8333 36.2188 20.8333H13.7813C13.4077 20.8333 13.1008 20.9535 12.8605 21.1938C12.6202 21.434 12.5001 21.7417 12.5001 22.1167V40.3854C12.5001 40.759 12.6202 41.066 12.8605 41.3062C13.1008 41.5465 13.4084 41.6667 13.7834 41.6667ZM25.0001 34.375C25.8792 34.375 26.6195 34.0736 27.2209 33.4708C27.8237 32.8694 28.1251 32.1292 28.1251 31.25C28.1251 30.3708 27.8237 29.6306 27.2209 29.0292C26.6181 28.4278 25.8779 28.1264 25.0001 28.125C24.1223 28.1236 23.382 28.425 22.7792 29.0292C22.1765 29.6306 21.8751 30.3708 21.8751 31.25C21.8751 32.1292 22.1765 32.8694 22.7792 33.4708C23.3806 34.0736 24.1209 34.375 25.0001 34.375ZM18.7501 18.75H31.2501V14.5833C31.2501 12.8472 30.6424 11.3715 29.4272 10.1562C28.2119 8.94097 26.7362 8.33333 25.0001 8.33333C23.264 8.33333 21.7883 8.94097 20.573 10.1562C19.3577 11.3715 18.7501 12.8472 18.7501 14.5833V18.75Z" fill="black"/>
</svg>
