<svg width="50" height="50" viewBox="0 0 50 50" fill="none" xmlns="http://www.w3.org/2000/svg">
<path d="M31.2499 29.1667C25.6874 29.1667 14.5833 31.9375 14.5833 37.5V41.6667H47.9166V37.5C47.9166 31.9375 36.8124 29.1667 31.2499 29.1667ZM12.4999 20.8334V14.5834H8.33325V20.8334H2.08325V25H8.33325V31.25H12.4999V25H18.7499V20.8334M31.2499 25C33.4601 25 35.5797 24.1221 37.1425 22.5593C38.7053 20.9965 39.5833 18.8768 39.5833 16.6667C39.5833 14.4566 38.7053 12.337 37.1425 10.7742C35.5797 9.21135 33.4601 8.33337 31.2499 8.33337C29.0398 8.33337 26.9202 9.21135 25.3574 10.7742C23.7946 12.337 22.9166 14.4566 22.9166 16.6667C22.9166 18.8768 23.7946 20.9965 25.3574 22.5593C26.9202 24.1221 29.0398 25 31.2499 25Z" fill="black"/>
</svg>
