<svg width="50" height="50" viewBox="0 0 50 50" fill="none" xmlns="http://www.w3.org/2000/svg">
<path d="M21.9238 0C18.457 0 15.6738 2.7832 15.6738 6.25V9.375H6.25C2.7832 9.375 0 12.1582 0 15.625V21.875H3.17383C6.62842 21.875 9.42383 24.6582 9.42383 28.125C9.42383 31.5918 6.62842 34.375 3.17383 34.375H0V43.7134C0 47.168 2.7832 49.9634 6.25 49.9634H15.6738V46.875C15.6738 43.4082 18.457 40.625 21.9238 40.625C25.3784 40.625 28.1738 43.4082 28.1738 46.875V49.9634H34.4238C37.8784 49.9634 40.6738 47.168 40.6738 43.7134V34.375H43.7988C47.2534 34.375 50.0488 31.5918 50.0488 28.125C50.0488 24.6582 47.2534 21.875 43.7988 21.875H40.6738V15.625C40.6738 12.1582 37.8784 9.375 34.4238 9.375H28.1738V6.25C28.1738 2.7832 25.3784 0 21.9238 0Z" fill="black"/>
</svg>
