<svg width="42" height="34" viewBox="0 0 42 34" fill="none" xmlns="http://www.w3.org/2000/svg">
<path d="M41.8334 12.8334V4.50004C41.8334 2.20837 39.9584 0.333374 37.6668 0.333374H4.33342C2.04175 0.333374 0.166748 2.20837 0.166748 4.50004V12.8334C2.45842 12.8334 4.33342 14.7084 4.33342 17C4.33342 19.2917 2.45842 21.1667 0.166748 21.1667V29.5C0.166748 31.7917 2.04175 33.6667 4.33342 33.6667H37.6668C39.9584 33.6667 41.8334 31.7917 41.8334 29.5V21.1667C39.5418 21.1667 37.6668 19.2917 37.6668 17C37.6668 14.7084 39.5418 12.8334 41.8334 12.8334ZM29.3334 19.0834H23.0834V25.3334H18.9167V19.0834H12.6667V14.9167H18.9167V8.66671H23.0834V14.9167H29.3334V19.0834Z" fill="black"/>
</svg>
