<svg width="50" height="48" viewBox="0 0 50 48" fill="none" xmlns="http://www.w3.org/2000/svg">
<path d="M50 13.95L47.475 21V20.975C46.175 20.5 44.9 20.575 43.65 21.175C42.4 21.775 41.525 22.725 41.05 24.025C40.575 25.325 40.65 26.6 41.225 27.85C41.825 29.1 42.775 29.95 44.1 30.425V30.45L41.575 37.5L3.925 24.05L6.4 17.075C7.7 17.55 8.975 17.475 10.225 16.875C11.475 16.3 12.325 15.35 12.8 14.05C13.275 12.75 13.2 11.475 12.6 10.225C12.025 9 11.075 8.15 9.775 7.675L12.325 0.5L50 13.95ZM37.575 28.175L41 18.775C41.3 18 41.25 17.15 40.9 16.4C40.55 15.65 39.925 15.075 39.15 14.775L20.35 7.95C18.75 7.375 16.925 8.25 16.35 9.8L12.925 19.2C12.325 20.825 13.175 22.625 14.775 23.2L33.575 30.05C33.925 30.175 34.275 30.25 34.65 30.25C35.95 30.25 37.15 29.425 37.575 28.175ZM19.925 9.125L38.7 15.95C39.175 16.125 39.55 16.475 39.775 16.925C39.975 17.375 40 17.875 39.825 18.35L36.4 27.75C36.075 28.7 34.95 29.225 34 28.875L15.225 22.025C14.25 21.675 13.75 20.6 14.1 19.625L17.525 10.225C17.775 9.5 18.5 9 19.275 9C19.5 9 19.7 9.05 19.925 9.125ZM36.975 39.475C37.85 40.15 38.85 40.5 39.975 40.5H40V48H0V40.6C1.375 40.6 2.575 40.1 3.525 39.125C4.5 38.175 5 36.975 5 35.6C5 34.225 4.5 33.05 3.525 32.075C2.55 31.1 1.375 30.6 0 30.6V23H2.625L1.925 25L9.1 27.55C7.825 27.95 6.875 29.1 6.875 30.5V40.5C6.875 42.225 8.275 43.625 10 43.625H30C31.725 43.625 33.125 42.225 33.125 40.5V36.125L35.2 36.875C35.5 37.95 36.1 38.825 36.975 39.475ZM8.125 40.5V30.5C8.125 29.475 8.975 28.625 10 28.625H12.075L31.875 35.7V40.5C31.875 41.525 31.025 42.375 30 42.375H10C8.975 42.375 8.125 41.525 8.125 40.5Z" fill="black"/>
</svg>
