<svg width="50" height="50" viewBox="0 0 50 50" fill="none" xmlns="http://www.w3.org/2000/svg">
<path d="M18.7501 20.8333C18.1975 20.8333 17.6676 21.0528 17.2769 21.4435C16.8862 21.8342 16.6667 22.3641 16.6667 22.9166V27.0833C16.6667 27.6358 16.8862 28.1657 17.2769 28.5564C17.6676 28.9471 18.1975 29.1666 18.7501 29.1666C19.3026 29.1666 19.8325 28.9471 20.2232 28.5564C20.6139 28.1657 20.8334 27.6358 20.8334 27.0833V22.9166C20.8334 22.3641 20.6139 21.8342 20.2232 21.4435C19.8325 21.0528 19.3026 20.8333 18.7501 20.8333ZM43.7501 22.9166C44.3026 22.9166 44.8325 22.6971 45.2232 22.3064C45.6139 21.9157 45.8334 21.3858 45.8334 20.8333V12.5C45.8334 11.9474 45.6139 11.4175 45.2232 11.0268C44.8325 10.6361 44.3026 10.4166 43.7501 10.4166H6.25008C5.69755 10.4166 5.16764 10.6361 4.77694 11.0268C4.38624 11.4175 4.16675 11.9474 4.16675 12.5V20.8333C4.16675 21.3858 4.38624 21.9157 4.77694 22.3064C5.16764 22.6971 5.69755 22.9166 6.25008 22.9166C6.80262 22.9166 7.33252 23.1361 7.72322 23.5268C8.11392 23.9175 8.33342 24.4474 8.33342 25C8.33342 25.5525 8.11392 26.0824 7.72322 26.4731C7.33252 26.8638 6.80262 27.0833 6.25008 27.0833C5.69755 27.0833 5.16764 27.3028 4.77694 27.6935C4.38624 28.0842 4.16675 28.6141 4.16675 29.1666V37.5C4.16675 38.0525 4.38624 38.5824 4.77694 38.9731C5.16764 39.3638 5.69755 39.5833 6.25008 39.5833H43.7501C44.3026 39.5833 44.8325 39.3638 45.2232 38.9731C45.6139 38.5824 45.8334 38.0525 45.8334 37.5V29.1666C45.8334 28.6141 45.6139 28.0842 45.2232 27.6935C44.8325 27.3028 44.3026 27.0833 43.7501 27.0833C43.1976 27.0833 42.6676 26.8638 42.2769 26.4731C41.8862 26.0824 41.6668 25.5525 41.6668 25C41.6668 24.4474 41.8862 23.9175 42.2769 23.5268C42.6676 23.1361 43.1976 22.9166 43.7501 22.9166ZM41.6668 19.125C40.4602 19.5629 39.4177 20.3617 38.681 21.4128C37.9443 22.4639 37.5491 23.7164 37.5491 25C37.5491 26.2835 37.9443 27.536 38.681 28.5871C39.4177 29.6382 40.4602 30.437 41.6668 30.875V35.4166H20.8334C20.8334 34.8641 20.6139 34.3342 20.2232 33.9435C19.8325 33.5528 19.3026 33.3333 18.7501 33.3333C18.1975 33.3333 17.6676 33.5528 17.2769 33.9435C16.8862 34.3342 16.6667 34.8641 16.6667 35.4166H8.33342V30.875C9.53998 30.437 10.5825 29.6382 11.3192 28.5871C12.0559 27.536 12.4511 26.2835 12.4511 25C12.4511 23.7164 12.0559 22.4639 11.3192 21.4128C10.5825 20.3617 9.53998 19.5629 8.33342 19.125V14.5833H16.6667C16.6667 15.1358 16.8862 15.6657 17.2769 16.0564C17.6676 16.4471 18.1975 16.6666 18.7501 16.6666C19.3026 16.6666 19.8325 16.4471 20.2232 16.0564C20.6139 15.6657 20.8334 15.1358 20.8334 14.5833H41.6668V19.125Z" fill="black"/>
</svg>
