<svg width="42" height="30" viewBox="0 0 42 30" fill="none" xmlns="http://www.w3.org/2000/svg">
<path d="M14.7501 10.8333C14.1975 10.8333 13.6676 11.0528 13.2769 11.4435C12.8862 11.8342 12.6667 12.3641 12.6667 12.9166V17.0833C12.6667 17.6358 12.8862 18.1657 13.2769 18.5564C13.6676 18.9471 14.1975 19.1666 14.7501 19.1666C15.3026 19.1666 15.8325 18.9471 16.2232 18.5564C16.6139 18.1657 16.8334 17.6358 16.8334 17.0833V12.9166C16.8334 12.3641 16.6139 11.8342 16.2232 11.4435C15.8325 11.0528 15.3026 10.8333 14.7501 10.8333ZM39.7501 12.9166C40.3026 12.9166 40.8325 12.6971 41.2232 12.3064C41.6139 11.9157 41.8334 11.3858 41.8334 10.8333V2.49996C41.8334 1.94742 41.6139 1.41752 41.2232 1.02682C40.8325 0.63612 40.3026 0.416626 39.7501 0.416626H2.25008C1.69755 0.416626 1.16764 0.63612 0.776942 1.02682C0.386241 1.41752 0.166748 1.94742 0.166748 2.49996V10.8333C0.166748 11.3858 0.386241 11.9157 0.776942 12.3064C1.16764 12.6971 1.69755 12.9166 2.25008 12.9166C2.80262 12.9166 3.33252 13.1361 3.72322 13.5268C4.11392 13.9175 4.33342 14.4474 4.33342 15C4.33342 15.5525 4.11392 16.0824 3.72322 16.4731C3.33252 16.8638 2.80262 17.0833 2.25008 17.0833C1.69755 17.0833 1.16764 17.3028 0.776942 17.6935C0.386241 18.0842 0.166748 18.6141 0.166748 19.1666V27.5C0.166748 28.0525 0.386241 28.5824 0.776942 28.9731C1.16764 29.3638 1.69755 29.5833 2.25008 29.5833H39.7501C40.3026 29.5833 40.8325 29.3638 41.2232 28.9731C41.6139 28.5824 41.8334 28.0525 41.8334 27.5V19.1666C41.8334 18.6141 41.6139 18.0842 41.2232 17.6935C40.8325 17.3028 40.3026 17.0833 39.7501 17.0833C39.1976 17.0833 38.6676 16.8638 38.2769 16.4731C37.8862 16.0824 37.6668 15.5525 37.6668 15C37.6668 14.4474 37.8862 13.9175 38.2769 13.5268C38.6676 13.1361 39.1976 12.9166 39.7501 12.9166ZM37.6668 9.12496C36.4602 9.56289 35.4177 10.3617 34.681 11.4128C33.9443 12.4639 33.5491 13.7164 33.5491 15C33.5491 16.2835 33.9443 17.536 34.681 18.5871C35.4177 19.6382 36.4602 20.437 37.6668 20.875V25.4166H16.8334C16.8334 24.8641 16.6139 24.3342 16.2232 23.9435C15.8325 23.5528 15.3026 23.3333 14.7501 23.3333C14.1975 23.3333 13.6676 23.5528 13.2769 23.9435C12.8862 24.3342 12.6667 24.8641 12.6667 25.4166H4.33342V20.875C5.53998 20.437 6.58246 19.6382 7.31916 18.5871C8.05587 17.536 8.45107 16.2835 8.45107 15C8.45107 13.7164 8.05587 12.4639 7.31916 11.4128C6.58246 10.3617 5.53998 9.56289 4.33342 9.12496V4.58329H12.6667C12.6667 5.13583 12.8862 5.66573 13.2769 6.05643C13.6676 6.44713 14.1975 6.66663 14.7501 6.66663C15.3026 6.66663 15.8325 6.44713 16.2232 6.05643C16.6139 5.66573 16.8334 5.13583 16.8334 4.58329H37.6668V9.12496Z" fill="black"/>
</svg>
