<svg width="50" height="50" viewBox="0 0 50 50" fill="none" xmlns="http://www.w3.org/2000/svg">
<path fill-rule="evenodd" clip-rule="evenodd" d="M20.2382 5.95239C24.1831 5.95239 27.3811 9.15036 27.3811 13.0952V17.8572C27.3811 21.802 24.1831 25 20.2382 25C16.2933 25 13.0953 21.802 13.0953 17.8572V13.0952C13.0953 9.15036 16.2933 5.95239 20.2382 5.95239ZM36.9049 39.2857V37.552C36.9049 29.9653 28.128 25 20.2382 25C12.3484 25 3.57153 29.9653 3.57153 37.552V39.2857C3.57153 40.6007 4.63752 41.6667 5.95249 41.6667H34.5239C35.8389 41.6667 36.9049 40.6007 36.9049 39.2857Z" fill="black"/>
<path d="M20.2382 25C24.1831 25 27.3811 21.802 27.3811 17.8572V13.0952C27.3811 9.15036 24.1831 5.95239 20.2382 5.95239C16.2933 5.95239 13.0953 9.15036 13.0953 13.0952V17.8572C13.0953 21.802 16.2933 25 20.2382 25ZM20.2382 25C28.128 25 36.9049 29.9653 36.9049 37.552V39.2857C36.9049 40.6007 35.8389 41.6667 34.5239 41.6667H5.95249C4.63752 41.6667 3.57153 40.6007 3.57153 39.2857V37.552C3.57153 29.9653 12.3484 25 20.2382 25Z" stroke="black" stroke-linecap="round" stroke-linejoin="round"/>
<path fill-rule="evenodd" clip-rule="evenodd" d="M29.8094 6.37585C32.5589 7.36969 34.5239 10.003 34.5239 13.0953V15.4763C34.5239 18.5645 32.5058 21.6223 29.762 22.6191C31.3674 20.4316 32.1689 17.6531 32.1666 14.2838C32.1644 10.9146 31.3786 8.27855 29.8094 6.37585ZM41.6667 41.6667H44.0477C45.3626 41.6667 46.4286 40.6007 46.4286 39.2858C46.4286 38.7079 46.4286 38.1299 46.4286 37.552C46.4286 32.3857 42.3585 28.4349 37.2701 26.44C37.2701 26.44 44.0477 32.1429 41.6667 41.6667Z" fill="black" stroke="black" stroke-linecap="round" stroke-linejoin="round"/>
</svg>
